<?xml version="1.0" standalone="no"?><!DOCTYPE svg PUBLIC "-//W3C//DTD SVG 1.1//EN" "http://www.w3.org/Graphics/SVG/1.1/DTD/svg11.dtd"><svg class="icon" height="512" viewBox="0 0 1024 1024" version="1.1" xmlns="http://www.w3.org/2000/svg"><path d="M275.904 566.4l584.96-140.16c-32.448-45.952-179.584-254.528-193.792-274.368-16-22.4 0.384-32.768 26.368-37.12a41996.8 41996.8 0 0 1 268.928-44.8c16.128-2.368 29.44-7.552 51.712 13.12A135.744 135.744 0 0 0 888.896 0H136.512A135.68 135.68 0 0 0 3.136 110.208L275.904 566.4z" fill="" /><path d="M970.752 122.688c-8.768 1.92-203.392 37.12-215.36 38.72-11.968 1.6-8 8.32-3.2 15.232l171.264 234.88L1024.704 386.56V167.488c-14.08-17.92-24.32-31.04-26.752-34.56-10.88-14.72-18.432-12.288-27.2-10.24m53.952 522.88a45703.616 45703.616 0 0 1-109.184-149.76c-7.04-10.24-10.88-12.16-27.648-6.784l-570.24 148.48S492.672 940.8 506.112 960c13.44 19.456 21.632 17.92 32.128 13.44 7.68-3.456 332.8-113.28 486.4-165.312V645.76z m0-100.288V459.52l-53.376 14.272L1024.704 545.28M674.624 1024h214.272a135.744 135.744 0 0 0 135.36-125.312c-109.44 39.552-251.136 90.24-349.696 125.312m-437.76-365.568l-236.8 61.696v168.064A136.832 136.832 0 0 0 136.384 1024h307.2c-40.192-65.664-149.568-262.72-206.336-365.568m-47.872-88.32L0.704 244.224v388.48l184.768-44.16c15.04-3.52 11.52-5.44 4.032-18.432" fill="" /><path d="M966.784 467.52L1024.704 451.84v26.88l-39.68 13.248-18.24-24.448z" fill="" /></svg>